<svg width="644" height="546" viewBox="0 0 644 546" fill="none" xmlns="http://www.w3.org/2000/svg">
<g clip-path="url(#clip0_11019_54291)">
<mask id="mask0_11019_54291" style="mask-type:luminance" maskUnits="userSpaceOnUse" x="0" y="0" width="644" height="563">
<path d="M644 0H0V563H644V0Z" fill="white"/>
</mask>
<g mask="url(#mask0_11019_54291)">
<path d="M155.995 53.5992L524.46 53.5137C525.39 67.3812 524.81 86.7057 524.785 100.984C514.15 100.848 503.515 100.771 492.88 100.754C488.835 100.735 474.155 100.003 471.725 101.873C469.595 106.881 470.365 121.714 470.37 127.696L470.42 169.517L202.438 169.581C209.749 176.209 217.05 183.744 224.109 190.724L260.426 226.66C289.572 225.983 320.99 226.564 350.25 226.581L498.585 226.648C503.87 231.172 512.655 240.482 517.97 245.795L555.81 283.766L580.085 308.011C583.91 311.821 590.405 317.896 593.575 321.906C594.435 352.201 593.29 384.291 593.84 414.961C588.04 422.021 575.11 434.231 568.27 441.046L520.115 489.241C513.105 496.071 506.345 503.076 499.24 509.861C466.595 510.611 430.635 509.761 397.63 509.781L167.111 509.841C167.382 468.516 166.585 426.731 167.243 385.461L442.14 385.401C421.47 363.711 397.615 340.821 376.21 319.531L123.398 319.516C108.711 304.366 92.9674 289.451 78.2439 274.222C70.4874 266.2 61.9239 258.413 54.4619 250.114L54.5574 155.945C57.0979 152.2 71.2674 138.441 75.0619 134.619L118.869 90.4402L143.117 66.0007C145.99 63.1077 153.021 55.6982 155.995 53.5992Z" fill="#FAFAFA"/>
<path d="M66.4755 404.501L115.24 404.471C123.567 404.451 132.553 404.241 140.841 404.736C142.798 404.806 145.139 405.676 146.113 407.546C148.086 411.341 147.236 419.916 147.223 424.366L147.156 454.631C147.157 463.971 147.474 474.966 147.179 484.366C147.12 486.251 144.351 488.136 142.84 489.131C136.784 489.506 130.172 489.286 124.058 489.266C105.555 489.201 87.018 489.301 68.5245 489.216C59.599 489.176 62.0435 474.806 62.0325 468.501L61.9755 440.301C61.953 430.401 61.7635 419.176 62.166 409.221C62.244 407.291 64.9745 405.526 66.4755 404.501Z" fill="#FAFAFA"/>
<path d="M547.92 28.541L585.15 28.545C592.385 28.513 599.69 28.314 606.905 28.7105C610.155 28.889 612.555 30.996 612.545 34.3645C612.475 53.911 612.955 73.555 612.33 93.076C612.28 94.708 610.02 96.2085 608.85 97.0285C590.945 97.0135 566.12 97.342 547.84 96.698C546.15 96.6385 544.81 94.0395 543.985 92.5385L544.02 51.8035C544.005 46.0895 543.78 38.66 544.19 32.8545C544.315 31.104 546.53 29.514 547.92 28.541Z" fill="#FAFAFA"/>
<path d="M524.765 116.743C538.585 116.283 536.915 118.694 536.605 132.6C536.43 140.445 537.93 159.898 534.995 166.425C532.785 168.009 503.455 167.304 498.645 167.292C495.81 167.321 487.78 168.499 487.425 163.387C486.76 153.828 487.14 143.899 487.01 134.298C486.975 131.531 485.805 117.443 490.16 117.206C501.57 116.585 513.265 116.948 524.765 116.743Z" fill="#FAFAFA"/>
</g>
</g>
<defs>
<clipPath id="clip0_11019_54291">
<rect width="644" height="546" fill="white"/>
</clipPath>
</defs>
</svg>
