<svg width="644" height="563" viewBox="0 0 644 563" fill="none" xmlns="http://www.w3.org/2000/svg">
<g clip-path="url(#clip0_2961_1949)">
<path d="M155.995 53.5982L524.46 53.5127C525.39 67.3802 524.81 86.7047 524.785 100.983C514.15 100.847 503.515 100.77 492.88 100.753C488.835 100.734 474.155 100.002 471.725 101.872C469.595 106.88 470.365 121.713 470.37 127.695L470.42 169.516L202.438 169.58C209.749 176.208 217.05 183.743 224.109 190.723L260.426 226.659C289.572 225.982 320.99 226.563 350.25 226.58L498.585 226.647C503.87 231.171 512.655 240.481 517.97 245.794L555.81 283.765L580.085 308.01C583.91 311.82 590.405 317.895 593.575 321.905C594.435 352.2 593.29 384.29 593.84 414.96C588.04 422.02 575.11 434.23 568.27 441.045L520.115 489.24C513.105 496.07 506.345 503.075 499.24 509.86C466.595 510.61 430.635 509.76 397.63 509.78L167.111 509.84C167.382 468.515 166.585 426.73 167.243 385.46L442.14 385.4C421.47 363.71 397.615 340.82 376.21 319.53L123.398 319.515C108.711 304.365 92.9674 289.45 78.2439 274.221C70.4874 266.199 61.9239 258.412 54.4619 250.113L54.5574 155.944C57.0979 152.199 71.2674 138.44 75.0619 134.618L118.869 90.4392L143.117 65.9997C145.99 63.1067 153.021 55.6972 155.995 53.5982Z" fill="#282828"/>
<path d="M66.4755 404.5L115.24 404.47C123.567 404.45 132.553 404.24 140.841 404.735C142.798 404.805 145.139 405.675 146.113 407.545C148.086 411.34 147.236 419.915 147.223 424.365L147.156 454.63C147.157 463.97 147.474 474.965 147.179 484.365C147.12 486.25 144.351 488.135 142.84 489.13C136.784 489.505 130.172 489.285 124.058 489.265C105.555 489.2 87.018 489.3 68.5245 489.215C59.599 489.175 62.0435 474.805 62.0325 468.5L61.9755 440.3C61.953 430.4 61.7635 419.175 62.166 409.22C62.244 407.29 64.9745 405.525 66.4755 404.5Z" fill="#282828"/>
<path d="M547.92 28.54L585.15 28.544C592.385 28.512 599.69 28.313 606.905 28.7095C610.155 28.888 612.555 30.995 612.545 34.3635C612.475 53.91 612.955 73.554 612.33 93.075C612.28 94.707 610.02 96.2075 608.85 97.0275C590.945 97.0125 566.12 97.341 547.84 96.697C546.15 96.6375 544.81 94.0385 543.985 92.5375L544.02 51.8025C544.005 46.0885 543.78 38.659 544.19 32.8535C544.315 31.103 546.53 29.513 547.92 28.54Z" fill="#282828"/>
<path d="M524.765 116.742C538.585 116.282 536.915 118.693 536.605 132.599C536.43 140.444 537.93 159.897 534.995 166.424C532.785 168.008 503.455 167.303 498.645 167.291C495.81 167.32 487.78 168.498 487.425 163.386C486.76 153.827 487.14 143.898 487.01 134.297C486.975 131.53 485.805 117.442 490.16 117.205C501.57 116.584 513.265 116.947 524.765 116.742Z" fill="#282828"/>
</g>
<defs>
<clipPath id="clip0_2961_1949">
<rect width="644" height="563" fill="white"/>
</clipPath>
</defs>
</svg>
